<?xml version="1.0" encoding="UTF-8"?>
<!DOCTYPE svg PUBLIC "-//W3C//DTD SVG 1.1//EN" "http://www.w3.org/Graphics/SVG/1.1/DTD/svg11.dtd">
<svg xmlns="http://www.w3.org/2000/svg" version="1.1" width="709px" height="709px" style="shape-rendering:geometricPrecision; text-rendering:geometricPrecision; image-rendering:optimizeQuality; fill-rule:evenodd; clip-rule:evenodd" xmlns:xlink="http://www.w3.org/1999/xlink">
<g><path style="opacity:0.993" fill="#181413" d="M 331.5,4.5 C 460.467,0.593414 563.301,49.9267 640,152.5C 702.062,245.207 718.395,345.54 689,453.5C 655.444,558.385 588.278,632.885 487.5,677C 397.365,712.581 307.365,712.248 217.5,676C 114.704,629.869 47.5375,552.703 16,444.5C -12.5651,323.778 12.7683,216.112 92,121.5C 156.463,51.3529 236.297,12.3529 331.5,4.5 Z M 292.5,189.5 C 371.618,188.493 448.618,200.659 523.5,226C 548.529,235.181 572.529,246.515 595.5,260C 608.384,270.655 611.884,283.822 606,299.5C 596.882,315.64 583.382,321.14 565.5,316C 515.628,288.042 462.295,270.042 405.5,262C 336.105,251.687 266.772,252.021 197.5,263C 181.95,265.777 166.617,269.443 151.5,274C 132.393,275.885 119.893,267.719 114,249.5C 111.879,231.632 119.045,219.132 135.5,212C 187.011,197.808 239.345,190.308 292.5,189.5 Z M 263.5,310.5 C 346.878,306.007 426.878,320.173 503.5,353C 518.976,360.236 533.976,368.236 548.5,377C 560.786,387.883 562.952,400.383 555,414.5C 548.116,422.906 539.282,426.406 528.5,425C 512.541,417.021 496.541,409.021 480.5,401C 393.767,365.093 304.101,355.093 211.5,371C 195.344,374.206 179.344,378.039 163.5,382.5C 143.732,378.943 135.232,367.277 138,347.5C 143.203,335.47 152.37,328.636 165.5,327C 197.821,318.558 230.487,313.058 263.5,310.5 Z M 289.5,423.5 C 352.21,421.942 412.21,433.776 469.5,459C 483.476,465.318 496.809,472.651 509.5,481C 519.255,492.63 518.588,503.63 507.5,514C 500.77,518.488 493.77,519.155 486.5,516C 428.97,481.866 366.637,465.366 299.5,466.5C 258.291,466.734 217.624,471.568 177.5,481C 162.21,482.542 153.544,475.709 151.5,460.5C 151.71,451.246 156.043,444.746 164.5,441C 205.728,430.991 247.394,425.158 289.5,423.5 Z"/></g>
</svg>
